<svg version="1.1" id="Layer_1" xmlns="http://www.w3.org/2000/svg" xmlns:xlink="http://www.w3.org/1999/xlink" x="0px" y="0px"
	 width="100%" viewBox="0 0 473 135" enable-background="new 0 0 473 135" xml:space="preserve">
<path fill="#0A0A0A" opacity="1.000000" stroke="none" 
	d="
M307.000000,136.000000 
	C204.666702,136.000000 102.833397,136.000000 1.000068,136.000000 
	C1.000046,91.000046 1.000046,46.000088 1.000023,1.000098 
	C158.666580,1.000066 316.333160,1.000066 473.999817,1.000033 
	C473.999878,45.999897 473.999878,90.999794 473.999939,135.999847 
	C418.500000,136.000000 363.000000,136.000000 307.000000,136.000000 
M10.025194,74.194771 
	C14.068538,107.438118 44.608299,129.617065 76.911621,122.769814 
	C107.083313,116.374397 126.106026,86.932037 119.446220,56.937023 
	C112.728661,26.681889 82.953354,8.212436 52.812565,14.774321 
	C31.942257,19.317947 7.543809,39.678940 10.025194,74.194771 
M365.363281,89.437271 
	C364.644775,92.787941 362.405701,94.019478 359.171570,93.951439 
	C356.841400,93.902412 354.509399,93.942032 352.178192,93.941231 
	C340.877350,93.937355 340.878296,93.937149 339.546631,82.666245 
	C339.488312,82.172729 339.561615,81.457001 339.272614,81.232872 
	C337.958282,80.213440 336.543854,78.597481 335.150696,78.582680 
	C333.265839,78.562645 330.367157,79.267990 329.642944,80.604622 
	C325.912292,87.490273 331.115112,99.790283 338.802673,100.716499 
	C347.755249,101.795135 356.978760,101.607010 365.991974,100.856010 
	C372.031097,100.352821 375.678650,95.041359 375.905975,88.892303 
	C376.065796,84.568787 376.074188,80.229637 375.911652,75.906433 
	C375.611298,67.918228 372.434296,64.199730 364.431244,62.881683 
	C360.534698,62.239952 356.521912,62.130066 352.559082,62.096699 
	C339.838684,61.989582 338.257324,60.254665 339.685974,47.466511 
	C339.722931,47.135849 339.806519,46.809410 339.829346,46.478313 
	C340.052521,43.243198 341.882996,41.706558 345.022888,41.682175 
	C350.017975,41.643387 355.072937,41.230309 359.980042,41.888756 
	C361.964661,42.155060 364.119232,44.532875 365.277344,46.492893 
	C366.174927,48.012028 365.168762,50.574837 365.893951,52.302094 
	C366.501892,53.750034 368.446716,55.657852 369.697174,55.585720 
	C371.797638,55.464569 375.130554,54.396111 375.652222,52.917393 
	C378.573120,44.637543 373.747101,35.652935 365.113037,34.152809 
	C358.315430,32.971760 351.229309,33.207703 344.273346,33.240154 
	C334.501007,33.285744 329.344116,38.677063 329.183990,48.495510 
	C329.145966,50.825924 329.098511,53.162067 329.211151,55.488033 
	C329.672760,65.019730 334.457581,69.745667 343.965576,70.025513 
	C348.791412,70.167557 353.627136,70.039093 358.448425,70.254990 
	C363.848267,70.496773 365.531525,72.202156 365.731659,77.633110 
	C365.866211,81.284210 365.643402,84.948479 365.363281,89.437271 
M213.226654,35.533569 
	C208.704727,38.121712 207.061630,42.224060 207.063873,47.206306 
	C207.069839,60.510857 207.029999,73.815544 207.080673,87.119904 
	C207.110413,94.928436 210.501587,100.112564 218.364288,101.023277 
	C226.809616,102.001480 235.552216,101.790367 244.014206,100.803909 
	C250.570297,100.039635 253.894852,95.020615 253.950333,88.385567 
	C254.067154,74.416893 254.055496,60.445961 253.946960,46.477116 
	C253.899231,40.332680 250.654861,35.444756 244.808578,34.357296 
	C234.534195,32.446159 224.114731,31.690683 213.226654,35.533569 
M278.633606,43.616577 
	C278.636932,41.450321 278.776428,39.273609 278.611084,37.120304 
	C278.373322,34.023766 276.365936,33.002472 273.460999,32.952412 
	C270.491119,32.901234 268.392273,33.971664 268.392731,37.096188 
	C268.395233,54.755093 268.357910,72.417397 268.712891,90.070923 
	C268.829407,95.865723 272.661163,100.263641 278.182922,100.770599 
	C287.194519,101.597961 296.403198,101.716957 305.397430,100.819504 
	C312.040375,100.156677 315.348328,95.122162 315.381927,88.487221 
	C315.466370,71.821976 315.371460,55.155834 315.447571,38.490505 
	C315.464691,34.737083 313.951233,32.988331 310.130707,32.951649 
	C306.244751,32.914345 305.371002,35.056332 305.409607,38.387863 
	C305.496460,45.886429 305.444550,53.386646 305.443024,60.886189 
	C305.441315,69.052361 305.492493,77.219147 305.408783,85.384514 
	C305.337128,92.373077 303.743530,93.901405 296.898010,93.922371 
	C293.898224,93.931557 290.898376,93.925095 287.898560,93.922325 
	C280.047180,93.915085 278.697327,92.611870 278.664307,84.584908 
	C278.609467,71.252579 278.639954,57.919899 278.633606,43.616577 
M440.473938,93.935013 
	C435.047699,93.935013 429.621429,93.935013 424.015747,93.935013 
	C424.015747,84.573471 424.015717,75.920067 424.015717,67.266663 
	C424.015717,58.671497 424.015747,50.076336 424.015747,41.195606 
	C432.290436,41.195606 439.930054,41.159973 447.569061,41.214798 
	C450.268524,41.234169 452.066467,39.905167 451.459229,37.393021 
	C451.071503,35.788998 449.060425,33.436363 447.708221,33.389011 
	C437.889130,33.045193 428.045715,33.024067 418.228699,33.394650 
	C416.765961,33.449860 414.192688,36.076458 414.172974,37.540886 
	C413.904144,57.532719 413.904236,77.530632 414.179169,97.522354 
	C414.199768,99.019409 416.773499,101.708786 418.235504,101.761536 
	C428.553101,102.133774 438.890472,101.938370 449.221313,101.975571 
	C452.335693,101.986786 453.168793,100.313286 453.120056,97.508072 
	C453.069336,94.588814 451.546295,93.803925 448.959412,93.907539 
	C446.463928,94.007484 443.961395,93.932732 440.473938,93.935013 
M399.692993,50.507061 
	C399.673462,46.009403 399.762360,41.507778 399.597809,37.015430 
	C399.480133,33.801105 397.262177,32.937069 394.411224,33.004505 
	C391.777374,33.066795 389.871277,33.762592 389.876190,36.944077 
	C389.907593,57.268970 389.824646,77.594650 390.041901,97.917274 
	C390.056366,99.270813 392.004211,101.367149 393.445831,101.795540 
	C397.406036,102.972382 399.672852,100.692909 399.683411,95.985916 
	C399.716705,81.158791 399.692871,66.331535 399.692993,50.507061 
M157.065536,34.661053 
	C154.778931,34.208904 152.432739,33.269127 150.234238,33.537807 
	C149.318497,33.649727 148.080734,36.331581 148.069626,37.852753 
	C147.925125,57.633106 147.999954,77.414940 147.952148,97.196236 
	C147.943817,100.644875 149.700836,102.028374 152.876129,101.953514 
	C155.933853,101.881432 157.892044,100.620911 157.871933,97.163544 
	C157.752029,76.560936 157.679382,55.958050 157.065536,34.661053 
M184.807587,45.532402 
	C184.804459,62.510654 184.850586,79.489182 184.756470,96.466934 
	C184.737732,99.847885 185.644592,101.924889 189.408386,101.982368 
	C192.942184,102.036324 194.418152,100.551559 194.399612,96.902008 
	C194.299850,77.261093 194.341583,57.619343 194.378113,37.977962 
	C194.383987,34.814976 193.356323,32.924503 189.807312,32.928211 
	C186.246063,32.931931 184.560913,34.424061 184.767792,38.055248 
	C184.890686,40.212471 184.801498,42.381771 184.807587,45.532402 
M429.725342,65.506393 
	C429.245544,69.330154 430.871124,71.081932 434.778046,70.944427 
	C438.599487,70.809929 442.429504,70.889328 446.255432,70.920479 
	C449.314697,70.945381 450.240662,69.289162 450.194153,66.469093 
	C450.146484,63.580067 448.689392,62.790619 446.067871,62.865276 
	C441.912323,62.983620 437.744415,62.766270 433.596039,62.975143 
	C432.333710,63.038700 431.118469,64.037819 429.725342,65.506393 
M172.202606,73.888702 
	C175.706757,73.083054 178.184677,70.854691 177.364914,67.337791 
	C176.882629,65.268761 174.591568,62.792248 172.565659,62.096996 
	C169.105652,60.909588 166.004745,62.481476 165.060196,66.437782 
	C164.124222,70.358170 166.306488,72.810211 172.202606,73.888702 
z"/>
<path fill="#F7F6F7" opacity="1.000000" stroke="none" 
	d="
M10.005902,73.726929 
	C7.543809,39.678940 31.942257,19.317947 52.812565,14.774321 
	C82.953354,8.212436 112.728661,26.681889 119.446220,56.937023 
	C126.106026,86.932037 107.083313,116.374397 76.911621,122.769814 
	C44.608299,129.617065 14.068538,107.438118 10.005902,73.726929 
M73.687981,23.457663 
	C68.056007,23.443037 62.274693,22.587225 56.817318,23.556089 
	C29.927929,28.329842 13.943702,53.679409 20.628990,80.271149 
	C27.010321,105.653854 54.135365,120.488213 79.510513,112.472733 
	C100.317703,105.900177 112.113907,87.755951 111.081322,63.912365 
	C110.272713,45.240383 94.967293,28.365410 73.687981,23.457663 
z"/>
<path fill="#F5F5F5" opacity="1.000000" stroke="none" 
	d="
M365.471893,89.022064 
	C365.643402,84.948479 365.866211,81.284210 365.731659,77.633110 
	C365.531525,72.202156 363.848267,70.496773 358.448425,70.254990 
	C353.627136,70.039093 348.791412,70.167557 343.965576,70.025513 
	C334.457581,69.745667 329.672760,65.019730 329.211151,55.488033 
	C329.098511,53.162067 329.145966,50.825924 329.183990,48.495510 
	C329.344116,38.677063 334.501007,33.285744 344.273346,33.240154 
	C351.229309,33.207703 358.315430,32.971760 365.113037,34.152809 
	C373.747101,35.652935 378.573120,44.637543 375.652222,52.917393 
	C375.130554,54.396111 371.797638,55.464569 369.697174,55.585720 
	C368.446716,55.657852 366.501892,53.750034 365.893951,52.302094 
	C365.168762,50.574837 366.174927,48.012028 365.277344,46.492893 
	C364.119232,44.532875 361.964661,42.155060 359.980042,41.888756 
	C355.072937,41.230309 350.017975,41.643387 345.022888,41.682175 
	C341.882996,41.706558 340.052521,43.243198 339.829346,46.478313 
	C339.806519,46.809410 339.722931,47.135849 339.685974,47.466511 
	C338.257324,60.254665 339.838684,61.989582 352.559082,62.096699 
	C356.521912,62.130066 360.534698,62.239952 364.431244,62.881683 
	C372.434296,64.199730 375.611298,67.918228 375.911652,75.906433 
	C376.074188,80.229637 376.065796,84.568787 375.905975,88.892303 
	C375.678650,95.041359 372.031097,100.352821 365.991974,100.856010 
	C356.978760,101.607010 347.755249,101.795135 338.802673,100.716499 
	C331.115112,99.790283 325.912292,87.490273 329.642944,80.604622 
	C330.367157,79.267990 333.265839,78.562645 335.150696,78.582680 
	C336.543854,78.597481 337.958282,80.213440 339.272614,81.232872 
	C339.561615,81.457001 339.488312,82.172729 339.546631,82.666245 
	C340.878296,93.937149 340.877350,93.937355 352.178192,93.941231 
	C354.509399,93.942032 356.841400,93.902412 359.171570,93.951439 
	C362.405701,94.019478 364.644775,92.787941 365.471893,89.022064 
z"/>
<path fill="#F8F8F8" opacity="1.000000" stroke="none" 
	d="
M213.561249,35.338852 
	C224.114731,31.690683 234.534195,32.446159 244.808578,34.357296 
	C250.654861,35.444756 253.899231,40.332680 253.946960,46.477116 
	C254.055496,60.445961 254.067154,74.416893 253.950333,88.385567 
	C253.894852,95.020615 250.570297,100.039635 244.014206,100.803909 
	C235.552216,101.790367 226.809616,102.001480 218.364288,101.023277 
	C210.501587,100.112564 207.110413,94.928436 207.080673,87.119904 
	C207.029999,73.815544 207.069839,60.510857 207.063873,47.206306 
	C207.061630,42.224060 208.704727,38.121712 213.561249,35.338852 
M226.782440,41.136162 
	C219.962631,41.196835 217.332855,42.595482 217.256714,47.275967 
	C217.037140,60.770798 217.083755,74.273430 217.277176,87.769394 
	C217.335190,91.816689 219.674011,94.150467 224.073669,94.004051 
	C227.902481,93.876625 231.739044,93.994408 235.572067,93.978172 
	C242.075256,93.950623 243.919846,92.186340 243.951889,85.765381 
	C243.999313,76.266174 243.818542,66.763756 243.999161,57.267731 
	C244.316605,40.577957 243.448776,40.865856 226.782440,41.136162 
z"/>
<path fill="#F1F1F1" opacity="1.000000" stroke="none" 
	d="
M278.634064,44.101974 
	C278.639954,57.919899 278.609467,71.252579 278.664307,84.584908 
	C278.697327,92.611870 280.047180,93.915085 287.898560,93.922325 
	C290.898376,93.925095 293.898224,93.931557 296.898010,93.922371 
	C303.743530,93.901405 305.337128,92.373077 305.408783,85.384514 
	C305.492493,77.219147 305.441315,69.052361 305.443024,60.886189 
	C305.444550,53.386646 305.496460,45.886429 305.409607,38.387863 
	C305.371002,35.056332 306.244751,32.914345 310.130707,32.951649 
	C313.951233,32.988331 315.464691,34.737083 315.447571,38.490505 
	C315.371460,55.155834 315.466370,71.821976 315.381927,88.487221 
	C315.348328,95.122162 312.040375,100.156677 305.397430,100.819504 
	C296.403198,101.716957 287.194519,101.597961 278.182922,100.770599 
	C272.661163,100.263641 268.829407,95.865723 268.712891,90.070923 
	C268.357910,72.417397 268.395233,54.755093 268.392731,37.096188 
	C268.392273,33.971664 270.491119,32.901234 273.460999,32.952412 
	C276.365936,33.002472 278.373322,34.023766 278.611084,37.120304 
	C278.776428,39.273609 278.636932,41.450321 278.634064,44.101974 
z"/>
<path fill="#F8F8F8" opacity="1.000000" stroke="none" 
	d="
M440.967957,93.934875 
	C443.961395,93.932732 446.463928,94.007484 448.959412,93.907539 
	C451.546295,93.803925 453.069336,94.588814 453.120056,97.508072 
	C453.168793,100.313286 452.335693,101.986786 449.221313,101.975571 
	C438.890472,101.938370 428.553101,102.133774 418.235504,101.761536 
	C416.773499,101.708786 414.199768,99.019409 414.179169,97.522354 
	C413.904236,77.530632 413.904144,57.532719 414.172974,37.540886 
	C414.192688,36.076458 416.765961,33.449860 418.228699,33.394650 
	C428.045715,33.024067 437.889130,33.045193 447.708221,33.389011 
	C449.060425,33.436363 451.071503,35.788998 451.459229,37.393021 
	C452.066467,39.905167 450.268524,41.234169 447.569061,41.214798 
	C439.930054,41.159973 432.290436,41.195606 424.015747,41.195606 
	C424.015747,50.076336 424.015717,58.671497 424.015717,67.266663 
	C424.015717,75.920067 424.015747,84.573471 424.015747,93.935013 
	C429.621429,93.935013 435.047699,93.935013 440.967957,93.934875 
z"/>
<path fill="#F4F4F4" opacity="1.000000" stroke="none" 
	d="
M399.692078,51.005692 
	C399.692871,66.331535 399.716705,81.158791 399.683411,95.985916 
	C399.672852,100.692909 397.406036,102.972382 393.445831,101.795540 
	C392.004211,101.367149 390.056366,99.270813 390.041901,97.917274 
	C389.824646,77.594650 389.907593,57.268970 389.876190,36.944077 
	C389.871277,33.762592 391.777374,33.066795 394.411224,33.004505 
	C397.262177,32.937069 399.480133,33.801105 399.597809,37.015430 
	C399.762360,41.507778 399.673462,46.009403 399.692078,51.005692 
z"/>
<path fill="#F6F5F5" opacity="1.000000" stroke="none" 
	d="
M157.328217,35.008156 
	C157.679382,55.958050 157.752029,76.560936 157.871933,97.163544 
	C157.892044,100.620911 155.933853,101.881432 152.876129,101.953514 
	C149.700836,102.028374 147.943817,100.644875 147.952148,97.196236 
	C147.999954,77.414940 147.925125,57.633106 148.069626,37.852753 
	C148.080734,36.331581 149.318497,33.649727 150.234238,33.537807 
	C152.432739,33.269127 154.778931,34.208904 157.328217,35.008156 
z"/>
<path fill="#FBFBFB" opacity="1.000000" stroke="none" 
	d="
M184.807632,45.039024 
	C184.801498,42.381771 184.890686,40.212471 184.767792,38.055248 
	C184.560913,34.424061 186.246063,32.931931 189.807312,32.928211 
	C193.356323,32.924503 194.383987,34.814976 194.378113,37.977962 
	C194.341583,57.619343 194.299850,77.261093 194.399612,96.902008 
	C194.418152,100.551559 192.942184,102.036324 189.408386,101.982368 
	C185.644592,101.924889 184.737732,99.847885 184.756470,96.466934 
	C184.850586,79.489182 184.804459,62.510654 184.807632,45.039024 
z"/>
<path fill="#F7F7F7" opacity="1.000000" stroke="none" 
	d="
M429.803528,65.057426 
	C431.118469,64.037819 432.333710,63.038700 433.596039,62.975143 
	C437.744415,62.766270 441.912323,62.983620 446.067871,62.865276 
	C448.689392,62.790619 450.146484,63.580067 450.194153,66.469093 
	C450.240662,69.289162 449.314697,70.945381 446.255432,70.920479 
	C442.429504,70.889328 438.599487,70.809929 434.778046,70.944427 
	C430.871124,71.081932 429.245544,69.330154 429.803528,65.057426 
z"/>
<path fill="#F6F6F6" opacity="1.000000" stroke="none" 
	d="
M171.811890,73.922501 
	C166.306488,72.810211 164.124222,70.358170 165.060196,66.437782 
	C166.004745,62.481476 169.105652,60.909588 172.565659,62.096996 
	C174.591568,62.792248 176.882629,65.268761 177.364914,67.337791 
	C178.184677,70.854691 175.706757,73.083054 171.811890,73.922501 
z"/>
<path fill="#0D0D0D" opacity="1.000000" stroke="none" 
	d="
M74.113182,23.539822 
	C94.967293,28.365410 110.272713,45.240383 111.081322,63.912365 
	C112.113907,87.755951 100.317703,105.900177 79.510513,112.472733 
	C54.135365,120.488213 27.010321,105.653854 20.628990,80.271149 
	C13.943702,53.679409 29.927929,28.329842 56.817318,23.556089 
	C62.274693,22.587225 68.056007,23.443037 74.113182,23.539822 
M43.061264,77.674316 
	C43.061069,81.169434 43.164539,84.668518 43.031044,88.158531 
	C42.901890,91.535057 44.364269,93.049698 47.730732,93.037819 
	C59.380947,92.996719 71.031784,92.971016 82.681534,93.056656 
	C86.109726,93.081863 87.516899,91.536316 87.482002,88.237503 
	C87.429489,83.274117 87.468330,78.309769 87.468330,73.416466 
	C93.687981,72.248642 95.382736,70.219025 92.686417,67.327103 
	C84.517303,58.565369 76.245377,49.894173 67.773613,41.427742 
	C66.872009,40.526707 63.606983,40.427830 62.760525,41.276127 
	C54.302078,49.752930 46.082932,58.470787 37.886600,67.205399 
	C35.610374,69.631104 36.999950,71.507729 39.421242,72.691788 
	C40.476448,73.207809 41.811218,73.152161 43.060806,73.363197 
	C43.060806,74.751564 43.060806,75.744392 43.061264,77.674316 
z"/>
<path fill="#0E0E0E" opacity="1.000000" stroke="none" 
	d="
M227.243378,41.136581 
	C243.448776,40.865856 244.316605,40.577957 243.999161,57.267731 
	C243.818542,66.763756 243.999313,76.266174 243.951889,85.765381 
	C243.919846,92.186340 242.075256,93.950623 235.572067,93.978172 
	C231.739044,93.994408 227.902481,93.876625 224.073669,94.004051 
	C219.674011,94.150467 217.335190,91.816689 217.277176,87.769394 
	C217.083755,74.273430 217.037140,60.770798 217.256714,47.275967 
	C217.332855,42.595482 219.962631,41.196835 227.243378,41.136581 
z"/>
<path fill="#FBFBFB" opacity="1.000000" stroke="none" 
	d="
M43.061035,77.205765 
	C43.060806,75.744392 43.060806,74.751564 43.060806,73.363197 
	C41.811218,73.152161 40.476448,73.207809 39.421242,72.691788 
	C36.999950,71.507729 35.610374,69.631104 37.886600,67.205399 
	C46.082932,58.470787 54.302078,49.752930 62.760525,41.276127 
	C63.606983,40.427830 66.872009,40.526707 67.773613,41.427742 
	C76.245377,49.894173 84.517303,58.565369 92.686417,67.327103 
	C95.382736,70.219025 93.687981,72.248642 87.468330,73.416466 
	C87.468330,78.309769 87.429489,83.274117 87.482002,88.237503 
	C87.516899,91.536316 86.109726,93.081863 82.681534,93.056656 
	C71.031784,92.971016 59.380947,92.996719 47.730732,93.037819 
	C44.364269,93.049698 42.901890,91.535057 43.031044,88.158531 
	C43.164539,84.668518 43.061069,81.169434 43.061035,77.205765 
M58.400856,71.398781 
	C58.261425,74.476143 58.121994,77.553505 57.971451,80.876122 
	C62.952927,80.876122 67.341599,80.876122 71.693459,80.876122 
	C73.180443,72.845261 72.160202,68.738007 68.037003,67.244133 
	C64.153091,65.836960 60.875141,66.806831 58.400856,71.398781 
z"/>
<path fill="#0E0E0F" opacity="1.000000" stroke="none" 
	d="
M58.598984,71.027542 
	C60.875141,66.806831 64.153091,65.836960 68.037003,67.244133 
	C72.160202,68.738007 73.180443,72.845261 71.693459,80.876122 
	C67.341599,80.876122 62.952927,80.876122 57.971451,80.876122 
	C58.121994,77.553505 58.261425,74.476143 58.598984,71.027542 
z"/>
</svg>